<svg xmlns="http://www.w3.org/2000/svg" viewBox="0 0 160 160">
  <style>
    .s { fill: #18181b; }
    @media (prefers-color-scheme: dark) { .s { fill: #fafafa; } }
  </style>
  <path class="s" d="M45.3,122.65c-7.22,0-13.52-1.07-18.9-3.21-5.38-2.14-9.56-5.44-12.53-9.91-2.98-4.47-4.49-10.18-4.52-17.14h21.44c.15,2.53.79,4.67,1.93,6.42,1.14,1.75,2.74,3.07,4.8,3.96,2.07.89,4.55,1.34,7.45,1.34,2.42,0,4.45-.3,6.08-.89,1.64-.59,2.88-1.42,3.71-2.48.84-1.06,1.26-2.28,1.26-3.66,0-1.26-.4-2.37-1.2-3.32s-2.11-1.81-3.94-2.6-4.28-1.49-7.37-2.12l-8.37-1.79c-7.33-1.56-13.11-4.23-17.33-8.01-4.22-3.78-6.34-8.92-6.34-15.44,0-5.28,1.43-9.91,4.3-13.87,2.87-3.96,6.82-7.05,11.86-9.27,5.04-2.21,10.86-3.32,17.45-3.32s12.55,1.13,17.45,3.38c4.89,2.25,8.67,5.42,11.33,9.49,2.66,4.08,4.01,8.83,4.05,14.26h-21.66c-.19-2.72-1.18-4.83-2.99-6.34s-4.53-2.26-8.18-2.26c-2.31,0-4.21.27-5.69.81-1.49.54-2.59,1.29-3.29,2.26-.71.97-1.06,2.07-1.06,3.29,0,1.3.38,2.45,1.14,3.43.76.99,1.97,1.84,3.63,2.57,1.66.73,3.79,1.37,6.39,1.93l6.81,1.45c4.58.97,8.51,2.25,11.81,3.85,3.29,1.6,5.99,3.47,8.1,5.61,2.1,2.14,3.65,4.55,4.63,7.23s1.48,5.6,1.48,8.77c0,5.47-1.35,10.11-4.05,13.93-2.7,3.82-6.56,6.71-11.58,8.68-5.02,1.97-11.05,2.96-18.09,2.96Z"/>
  <path d="M131.77,89.62l18.1-30.39h-23.06l-4.13,7.93c-1.71,3.28-3.31,6.69-4.8,10.24-.23.54-.46,1.06-.68,1.6-.22-.55-.44-1.08-.66-1.63-1.42-3.54-2.92-6.94-4.52-10.22l-3.85-7.93h-23.5l17.53,30.34-18.65,32.07h23l4.86-9.83c1.64-3.31,3.18-6.77,4.63-10.38.23-.58.46-1.14.7-1.71.24.58.49,1.13.73,1.71,1.51,3.61,3.12,7.07,4.83,10.38l5.02,9.83h23.34l-18.88-32.03Z" fill="#6366f1"/>
</svg>
